<?xml version="1.0" encoding="UTF-8"?>
<svg id="Calque_2" data-name="Calque 2" xmlns="http://www.w3.org/2000/svg" viewBox="0 0 1308.36 298.36">
  <defs>
    <style>
      .cls-1 {
        fill: #fb3f3f;
      }

      .cls-1, .cls-2, .cls-3 {
        stroke-width: 0px;
      }

      .cls-1, .cls-3 {
        fill-rule: evenodd;
      }

      .cls-2, .cls-3 {
        fill: #fff;
      }
    </style>
  </defs>
  <g id="Calque_2-2" data-name="Calque 2">
    <g>
      <g>
        <path id="Triangle_6_copie_2" data-name="Triangle 6 copie 2" class="cls-3" d="m283.3,54.61l-187.6,217.47L0,25.56l283.3,29.04Z"/>
        <path id="Triangle_6_copie_2-2" data-name="Triangle 6 copie 2-2" class="cls-1" d="m292.21,130.02L38.71,264.51V0l253.5,130.02Z"/>
      </g>
      <path class="cls-2" d="m465,47.76h-66.07l-25.29,191.24h37.94l9.29-70.97h28.13c49.72,0,77.25-20.13,82.59-60.39,5.33-39.91-16.86-59.88-66.59-59.88Zm28.65,59.88c-2.58,19.27-16.09,28.91-40.52,28.91h-28.13l7.48-57.29h28.13c24.43,0,35.44,9.46,33.03,28.39Z"/>
      <path class="cls-2" d="m566.68,195.12l20.13-152.79h-36.65l-19.87,152.27c-3.96,29.94,6.71,44.91,32,44.91,8.43,0,16.43-2.41,24-7.23l2.58-23.23h-9.81c-9.46,0-13.59-4.65-12.39-13.94Z"/>
      <path class="cls-2" d="m599.36,170.86c-6.02,45.77,9.03,68.65,45.16,68.65,11.18-.35,23.05-7.14,35.62-20.39v20.39h32.52l17.29-131.62c-21.51-4.3-41.38-6.88-59.62-7.74-40.61,0-64.26,23.57-70.97,70.72Zm84.65,18.07c-13.08,13.94-25.03,21.16-35.87,21.68-12.56,0-17.03-13.25-13.42-39.75,5.68-28.22,16.26-42.33,31.74-42.33,7.57.35,15.91,1.64,25.03,3.87l-7.48,56.52Z"/>
      <path class="cls-2" d="m796.48,199.25c-2.24-.17-3.79-1.03-4.65-2.58-8.43-32.35-12.82-64.61-13.16-96.78h-37.68c2.92,40.61,9.72,81.3,20.39,122.07,2.23,7.74,7.48,12.73,15.74,14.97-9.98,15.83-21.68,29.94-35.1,42.33l20.39,19.1c8.77-4.82,19.74-14.97,32.91-30.45,13.16-15.49,24.73-35.7,34.71-60.65l48.26-107.11h-37.68l-44.13,99.1Z"/>
      <path class="cls-2" d="m1003.93,47.76l-60.65,142.46-22.97-142.46h-41.04l35.36,183.24c1.2,4.99,3.52,7.48,6.97,7.48h29.94c3.78,0,6.97-2.49,9.55-7.48l83.88-183.24h-41.04Z"/>
      <path class="cls-2" d="m1102.15,99.89h-10.32c-20.48,0-36.52,6.45-48.13,19.36-11.61,12.9-18.63,28.56-21.03,46.97l-.77,6.97c-2.41,18.07.47,33.55,8.65,46.46,8.17,12.9,22.49,19.36,42.97,19.36h10.32c20.47,0,36.47-6.45,48-19.36,11.53-12.9,18.49-28.39,20.9-46.46l.77-6.97c2.41-18.41-.43-34.07-8.52-46.97-8.09-12.9-22.37-19.36-42.84-19.36Zm14.71,66.33l-.77,6.97c-3.27,24.61-14.45,36.91-33.55,36.91-20.13,0-28.56-12.3-25.29-36.91l.77-6.97c3.27-24.95,14.97-37.42,35.1-37.42s27.01,12.48,23.74,37.42Z"/>
      <path class="cls-2" d="m1271.71,45.95l-8.26,63.23c-8.61-8.6-20.39-12.9-35.36-12.9-35.27,0-56.09,24.26-62.46,72.78-6.37,48.35,8.17,72.52,43.62,72.52,13.07,0,25.89-5.07,38.45-15.23l1.03,12.65h34.33l25.29-193.05h-36.65Zm-19.1,146.33c-7.92,11.87-19.36,17.81-34.33,17.81s-19.61-14.11-16-42.33c3.61-26.49,12.56-39.75,26.84-39.75,13.25,0,23.31,4.39,30.2,13.16l-6.71,51.1Z"/>
    </g>
  </g>
</svg>